<mxfile host="Electron" modified="2025-07-15T17:09:58.835Z" agent="Mozilla/5.0 (Windows NT 10.0; Win64; x64) AppleWebKit/537.36 (KHTML, like Gecko) draw.io/24.5.3 Chrome/124.0.6367.207 Electron/30.0.6 Safari/537.36" etag="x0LNznD7Lpw71xzQEDrr" version="24.5.3" type="device" pages="2">
  <diagram id="C5RBs43oDa-KdzZeNtuy" name="Page-1">
    <mxGraphModel dx="2739" dy="1115" grid="1" gridSize="10" guides="1" tooltips="1" connect="1" arrows="1" fold="1" page="1" pageScale="1" pageWidth="827" pageHeight="1169" math="0" shadow="0">
      <root>
        <mxCell id="WIyWlLk6GJQsqaUBKTNV-0" />
        <mxCell id="WIyWlLk6GJQsqaUBKTNV-1" parent="WIyWlLk6GJQsqaUBKTNV-0" />
        <mxCell id="8N_FcMI9_JePkyyZ4MbF-60" style="edgeStyle=orthogonalEdgeStyle;rounded=0;orthogonalLoop=1;jettySize=auto;html=1;entryX=0.5;entryY=0;entryDx=0;entryDy=0;" edge="1" parent="WIyWlLk6GJQsqaUBKTNV-1" source="WIyWlLk6GJQsqaUBKTNV-3" target="8N_FcMI9_JePkyyZ4MbF-59">
          <mxGeometry relative="1" as="geometry" />
        </mxCell>
        <mxCell id="WIyWlLk6GJQsqaUBKTNV-3" value="Начало" style="rounded=1;whiteSpace=wrap;html=1;fontSize=12;glass=0;strokeWidth=1;shadow=0;" parent="WIyWlLk6GJQsqaUBKTNV-1" vertex="1">
          <mxGeometry x="-280" y="500" width="120" height="40" as="geometry" />
        </mxCell>
        <mxCell id="WIyWlLk6GJQsqaUBKTNV-11" value="Конец" style="rounded=1;whiteSpace=wrap;html=1;fontSize=12;glass=0;strokeWidth=1;shadow=0;" parent="WIyWlLk6GJQsqaUBKTNV-1" vertex="1">
          <mxGeometry x="-410" y="870" width="120" height="40" as="geometry" />
        </mxCell>
        <mxCell id="8N_FcMI9_JePkyyZ4MbF-3" style="edgeStyle=orthogonalEdgeStyle;rounded=0;orthogonalLoop=1;jettySize=auto;html=1;exitX=1;exitY=0.5;exitDx=0;exitDy=0;entryX=0.5;entryY=0;entryDx=0;entryDy=0;" edge="1" parent="WIyWlLk6GJQsqaUBKTNV-1" source="8N_FcMI9_JePkyyZ4MbF-0" target="8N_FcMI9_JePkyyZ4MbF-1">
          <mxGeometry relative="1" as="geometry" />
        </mxCell>
        <mxCell id="veDKGBILxuSOt_c6IYAu-9" style="edgeStyle=orthogonalEdgeStyle;rounded=0;orthogonalLoop=1;jettySize=auto;html=1;exitX=0;exitY=0.5;exitDx=0;exitDy=0;entryX=0.5;entryY=0;entryDx=0;entryDy=0;" edge="1" parent="WIyWlLk6GJQsqaUBKTNV-1" source="8N_FcMI9_JePkyyZ4MbF-0" target="veDKGBILxuSOt_c6IYAu-8">
          <mxGeometry relative="1" as="geometry" />
        </mxCell>
        <mxCell id="8N_FcMI9_JePkyyZ4MbF-0" value="IsRootExist" style="rhombus;whiteSpace=wrap;html=1;" vertex="1" parent="WIyWlLk6GJQsqaUBKTNV-1">
          <mxGeometry x="77" y="660" width="140" height="80" as="geometry" />
        </mxCell>
        <mxCell id="8N_FcMI9_JePkyyZ4MbF-62" style="edgeStyle=orthogonalEdgeStyle;rounded=0;orthogonalLoop=1;jettySize=auto;html=1;" edge="1" parent="WIyWlLk6GJQsqaUBKTNV-1" source="8N_FcMI9_JePkyyZ4MbF-1" target="8N_FcMI9_JePkyyZ4MbF-61">
          <mxGeometry relative="1" as="geometry" />
        </mxCell>
        <mxCell id="8N_FcMI9_JePkyyZ4MbF-65" style="edgeStyle=orthogonalEdgeStyle;rounded=0;orthogonalLoop=1;jettySize=auto;html=1;entryX=0;entryY=0.5;entryDx=0;entryDy=0;exitX=1;exitY=0.5;exitDx=0;exitDy=0;" edge="1" parent="WIyWlLk6GJQsqaUBKTNV-1" source="8N_FcMI9_JePkyyZ4MbF-61" target="8N_FcMI9_JePkyyZ4MbF-64">
          <mxGeometry relative="1" as="geometry" />
        </mxCell>
        <mxCell id="8N_FcMI9_JePkyyZ4MbF-1" value="InitRoot()" style="rounded=0;whiteSpace=wrap;html=1;" vertex="1" parent="WIyWlLk6GJQsqaUBKTNV-1">
          <mxGeometry x="207" y="740" width="140" height="60" as="geometry" />
        </mxCell>
        <mxCell id="8N_FcMI9_JePkyyZ4MbF-7" style="edgeStyle=orthogonalEdgeStyle;rounded=0;orthogonalLoop=1;jettySize=auto;html=1;exitX=0.5;exitY=1;exitDx=0;exitDy=0;entryX=0.5;entryY=0;entryDx=0;entryDy=0;" edge="1" parent="WIyWlLk6GJQsqaUBKTNV-1" source="8N_FcMI9_JePkyyZ4MbF-2" target="8N_FcMI9_JePkyyZ4MbF-6">
          <mxGeometry relative="1" as="geometry" />
        </mxCell>
        <mxCell id="8N_FcMI9_JePkyyZ4MbF-2" value="Cluster.ReadData()" style="rounded=0;whiteSpace=wrap;html=1;" vertex="1" parent="WIyWlLk6GJQsqaUBKTNV-1">
          <mxGeometry x="1260" y="1090" width="140" height="60" as="geometry" />
        </mxCell>
        <mxCell id="veDKGBILxuSOt_c6IYAu-25" style="edgeStyle=orthogonalEdgeStyle;rounded=0;orthogonalLoop=1;jettySize=auto;html=1;entryX=0.5;entryY=0;entryDx=0;entryDy=0;" edge="1" parent="WIyWlLk6GJQsqaUBKTNV-1" source="8N_FcMI9_JePkyyZ4MbF-6" target="veDKGBILxuSOt_c6IYAu-24">
          <mxGeometry relative="1" as="geometry" />
        </mxCell>
        <mxCell id="8N_FcMI9_JePkyyZ4MbF-6" value="Cluster.GetVolumeList()" style="rounded=0;whiteSpace=wrap;html=1;" vertex="1" parent="WIyWlLk6GJQsqaUBKTNV-1">
          <mxGeometry x="1260" y="1185" width="140" height="60" as="geometry" />
        </mxCell>
        <mxCell id="8N_FcMI9_JePkyyZ4MbF-43" style="edgeStyle=orthogonalEdgeStyle;rounded=0;orthogonalLoop=1;jettySize=auto;html=1;entryX=0.5;entryY=0;entryDx=0;entryDy=0;" edge="1" parent="WIyWlLk6GJQsqaUBKTNV-1" source="8N_FcMI9_JePkyyZ4MbF-8" target="8N_FcMI9_JePkyyZ4MbF-42">
          <mxGeometry relative="1" as="geometry" />
        </mxCell>
        <mxCell id="8N_FcMI9_JePkyyZ4MbF-8" value="args" style="shape=parallelogram;perimeter=parallelogramPerimeter;whiteSpace=wrap;html=1;fixedSize=1;" vertex="1" parent="WIyWlLk6GJQsqaUBKTNV-1">
          <mxGeometry y="130" width="140" height="60" as="geometry" />
        </mxCell>
        <mxCell id="8N_FcMI9_JePkyyZ4MbF-51" style="edgeStyle=orthogonalEdgeStyle;rounded=0;orthogonalLoop=1;jettySize=auto;html=1;exitX=0.5;exitY=1;exitDx=0;exitDy=0;entryX=0.5;entryY=0;entryDx=0;entryDy=0;" edge="1" parent="WIyWlLk6GJQsqaUBKTNV-1" source="8N_FcMI9_JePkyyZ4MbF-10" target="8N_FcMI9_JePkyyZ4MbF-50">
          <mxGeometry relative="1" as="geometry" />
        </mxCell>
        <mxCell id="8N_FcMI9_JePkyyZ4MbF-10" value="rootApiKey" style="shape=parallelogram;perimeter=parallelogramPerimeter;whiteSpace=wrap;html=1;fixedSize=1;" vertex="1" parent="WIyWlLk6GJQsqaUBKTNV-1">
          <mxGeometry x="207" y="920" width="140" height="60" as="geometry" />
        </mxCell>
        <mxCell id="8N_FcMI9_JePkyyZ4MbF-26" style="edgeStyle=orthogonalEdgeStyle;rounded=0;orthogonalLoop=1;jettySize=auto;html=1;exitX=0.5;exitY=1;exitDx=0;exitDy=0;entryX=0.5;entryY=0;entryDx=0;entryDy=0;" edge="1" parent="WIyWlLk6GJQsqaUBKTNV-1" source="8N_FcMI9_JePkyyZ4MbF-13" target="8N_FcMI9_JePkyyZ4MbF-22">
          <mxGeometry relative="1" as="geometry" />
        </mxCell>
        <mxCell id="8N_FcMI9_JePkyyZ4MbF-13" value="DB.TryConnect()" style="rounded=0;whiteSpace=wrap;html=1;" vertex="1" parent="WIyWlLk6GJQsqaUBKTNV-1">
          <mxGeometry x="680" y="150" width="120" height="60" as="geometry" />
        </mxCell>
        <mxCell id="8N_FcMI9_JePkyyZ4MbF-21" style="edgeStyle=orthogonalEdgeStyle;rounded=0;orthogonalLoop=1;jettySize=auto;html=1;entryX=0.5;entryY=0;entryDx=0;entryDy=0;" edge="1" parent="WIyWlLk6GJQsqaUBKTNV-1" source="8N_FcMI9_JePkyyZ4MbF-14" target="8N_FcMI9_JePkyyZ4MbF-19">
          <mxGeometry relative="1" as="geometry" />
        </mxCell>
        <mxCell id="8N_FcMI9_JePkyyZ4MbF-14" value="E" style="ellipse;whiteSpace=wrap;html=1;aspect=fixed;fillColor=#e51400;fontColor=#ffffff;strokeColor=#B20000;" vertex="1" parent="WIyWlLk6GJQsqaUBKTNV-1">
          <mxGeometry x="-530" y="580" width="60" height="60" as="geometry" />
        </mxCell>
        <mxCell id="8N_FcMI9_JePkyyZ4MbF-18" style="edgeStyle=orthogonalEdgeStyle;rounded=0;orthogonalLoop=1;jettySize=auto;html=1;entryX=0.5;entryY=0;entryDx=0;entryDy=0;" edge="1" parent="WIyWlLk6GJQsqaUBKTNV-1" source="8N_FcMI9_JePkyyZ4MbF-16" target="WIyWlLk6GJQsqaUBKTNV-11">
          <mxGeometry relative="1" as="geometry" />
        </mxCell>
        <mxCell id="8N_FcMI9_JePkyyZ4MbF-16" value="Error.Message" style="shape=parallelogram;perimeter=parallelogramPerimeter;whiteSpace=wrap;html=1;fixedSize=1;" vertex="1" parent="WIyWlLk6GJQsqaUBKTNV-1">
          <mxGeometry x="-560" y="780" width="120" height="60" as="geometry" />
        </mxCell>
        <mxCell id="8N_FcMI9_JePkyyZ4MbF-20" style="edgeStyle=orthogonalEdgeStyle;rounded=0;orthogonalLoop=1;jettySize=auto;html=1;entryX=0.5;entryY=0;entryDx=0;entryDy=0;" edge="1" parent="WIyWlLk6GJQsqaUBKTNV-1" source="8N_FcMI9_JePkyyZ4MbF-19" target="8N_FcMI9_JePkyyZ4MbF-16">
          <mxGeometry relative="1" as="geometry" />
        </mxCell>
        <mxCell id="8N_FcMI9_JePkyyZ4MbF-19" value="Logger.Error" style="rounded=0;whiteSpace=wrap;html=1;" vertex="1" parent="WIyWlLk6GJQsqaUBKTNV-1">
          <mxGeometry x="-560" y="680" width="120" height="60" as="geometry" />
        </mxCell>
        <mxCell id="8N_FcMI9_JePkyyZ4MbF-28" style="edgeStyle=orthogonalEdgeStyle;rounded=0;orthogonalLoop=1;jettySize=auto;html=1;exitX=1;exitY=0.5;exitDx=0;exitDy=0;entryX=0;entryY=0.5;entryDx=0;entryDy=0;" edge="1" parent="WIyWlLk6GJQsqaUBKTNV-1" source="8N_FcMI9_JePkyyZ4MbF-22" target="8N_FcMI9_JePkyyZ4MbF-27">
          <mxGeometry relative="1" as="geometry" />
        </mxCell>
        <mxCell id="8N_FcMI9_JePkyyZ4MbF-31" style="edgeStyle=orthogonalEdgeStyle;rounded=0;orthogonalLoop=1;jettySize=auto;html=1;exitX=0.5;exitY=1;exitDx=0;exitDy=0;entryX=0.5;entryY=0;entryDx=0;entryDy=0;" edge="1" parent="WIyWlLk6GJQsqaUBKTNV-1" source="8N_FcMI9_JePkyyZ4MbF-22" target="8N_FcMI9_JePkyyZ4MbF-30">
          <mxGeometry relative="1" as="geometry" />
        </mxCell>
        <mxCell id="8N_FcMI9_JePkyyZ4MbF-22" value="IsSuccess" style="rhombus;whiteSpace=wrap;html=1;" vertex="1" parent="WIyWlLk6GJQsqaUBKTNV-1">
          <mxGeometry x="680" y="240" width="120" height="60" as="geometry" />
        </mxCell>
        <mxCell id="8N_FcMI9_JePkyyZ4MbF-25" style="edgeStyle=orthogonalEdgeStyle;rounded=0;orthogonalLoop=1;jettySize=auto;html=1;entryX=0.5;entryY=0;entryDx=0;entryDy=0;" edge="1" parent="WIyWlLk6GJQsqaUBKTNV-1" source="8N_FcMI9_JePkyyZ4MbF-24" target="8N_FcMI9_JePkyyZ4MbF-13">
          <mxGeometry relative="1" as="geometry" />
        </mxCell>
        <mxCell id="8N_FcMI9_JePkyyZ4MbF-24" value="A" style="ellipse;whiteSpace=wrap;html=1;aspect=fixed;fillColor=#6d8764;fontColor=#ffffff;strokeColor=#3A5431;" vertex="1" parent="WIyWlLk6GJQsqaUBKTNV-1">
          <mxGeometry x="710" y="60" width="60" height="60" as="geometry" />
        </mxCell>
        <mxCell id="8N_FcMI9_JePkyyZ4MbF-27" value="E" style="ellipse;whiteSpace=wrap;html=1;aspect=fixed;fillColor=#e51400;fontColor=#ffffff;strokeColor=#B20000;" vertex="1" parent="WIyWlLk6GJQsqaUBKTNV-1">
          <mxGeometry x="840" y="240" width="60" height="60" as="geometry" />
        </mxCell>
        <mxCell id="8N_FcMI9_JePkyyZ4MbF-30" value="B" style="ellipse;whiteSpace=wrap;html=1;aspect=fixed;fillColor=#6d8764;fontColor=#ffffff;strokeColor=#3A5431;" vertex="1" parent="WIyWlLk6GJQsqaUBKTNV-1">
          <mxGeometry x="710" y="330" width="60" height="60" as="geometry" />
        </mxCell>
        <mxCell id="8N_FcMI9_JePkyyZ4MbF-39" style="edgeStyle=orthogonalEdgeStyle;rounded=0;orthogonalLoop=1;jettySize=auto;html=1;entryX=0.5;entryY=0;entryDx=0;entryDy=0;" edge="1" parent="WIyWlLk6GJQsqaUBKTNV-1" source="8N_FcMI9_JePkyyZ4MbF-33" target="8N_FcMI9_JePkyyZ4MbF-34">
          <mxGeometry relative="1" as="geometry" />
        </mxCell>
        <mxCell id="8N_FcMI9_JePkyyZ4MbF-33" value="ArgParser.Parse()" style="rounded=0;whiteSpace=wrap;html=1;" vertex="1" parent="WIyWlLk6GJQsqaUBKTNV-1">
          <mxGeometry x="980" y="150" width="120" height="60" as="geometry" />
        </mxCell>
        <mxCell id="8N_FcMI9_JePkyyZ4MbF-40" style="edgeStyle=orthogonalEdgeStyle;rounded=0;orthogonalLoop=1;jettySize=auto;html=1;entryX=0.5;entryY=0;entryDx=0;entryDy=0;" edge="1" parent="WIyWlLk6GJQsqaUBKTNV-1" source="8N_FcMI9_JePkyyZ4MbF-34" target="8N_FcMI9_JePkyyZ4MbF-37">
          <mxGeometry relative="1" as="geometry" />
        </mxCell>
        <mxCell id="8N_FcMI9_JePkyyZ4MbF-41" style="edgeStyle=orthogonalEdgeStyle;rounded=0;orthogonalLoop=1;jettySize=auto;html=1;entryX=0;entryY=0.5;entryDx=0;entryDy=0;" edge="1" parent="WIyWlLk6GJQsqaUBKTNV-1" source="8N_FcMI9_JePkyyZ4MbF-34" target="8N_FcMI9_JePkyyZ4MbF-36">
          <mxGeometry relative="1" as="geometry" />
        </mxCell>
        <mxCell id="8N_FcMI9_JePkyyZ4MbF-34" value="IsSuccess" style="rhombus;whiteSpace=wrap;html=1;" vertex="1" parent="WIyWlLk6GJQsqaUBKTNV-1">
          <mxGeometry x="980" y="240" width="120" height="60" as="geometry" />
        </mxCell>
        <mxCell id="8N_FcMI9_JePkyyZ4MbF-38" style="edgeStyle=orthogonalEdgeStyle;rounded=0;orthogonalLoop=1;jettySize=auto;html=1;exitX=0.5;exitY=1;exitDx=0;exitDy=0;entryX=0.5;entryY=0;entryDx=0;entryDy=0;" edge="1" parent="WIyWlLk6GJQsqaUBKTNV-1" source="8N_FcMI9_JePkyyZ4MbF-35" target="8N_FcMI9_JePkyyZ4MbF-33">
          <mxGeometry relative="1" as="geometry" />
        </mxCell>
        <mxCell id="8N_FcMI9_JePkyyZ4MbF-35" value="C" style="ellipse;whiteSpace=wrap;html=1;aspect=fixed;fillColor=#6d8764;fontColor=#ffffff;strokeColor=#3A5431;" vertex="1" parent="WIyWlLk6GJQsqaUBKTNV-1">
          <mxGeometry x="1010" y="60" width="60" height="60" as="geometry" />
        </mxCell>
        <mxCell id="8N_FcMI9_JePkyyZ4MbF-36" value="E" style="ellipse;whiteSpace=wrap;html=1;aspect=fixed;fillColor=#e51400;fontColor=#ffffff;strokeColor=#B20000;" vertex="1" parent="WIyWlLk6GJQsqaUBKTNV-1">
          <mxGeometry x="1140" y="240" width="60" height="60" as="geometry" />
        </mxCell>
        <mxCell id="8N_FcMI9_JePkyyZ4MbF-37" value="D" style="ellipse;whiteSpace=wrap;html=1;aspect=fixed;fillColor=#6d8764;fontColor=#ffffff;strokeColor=#3A5431;" vertex="1" parent="WIyWlLk6GJQsqaUBKTNV-1">
          <mxGeometry x="1010" y="330" width="60" height="60" as="geometry" />
        </mxCell>
        <mxCell id="8N_FcMI9_JePkyyZ4MbF-42" value="C" style="ellipse;whiteSpace=wrap;html=1;aspect=fixed;fillColor=#6d8764;fontColor=#ffffff;strokeColor=#3A5431;" vertex="1" parent="WIyWlLk6GJQsqaUBKTNV-1">
          <mxGeometry x="40" y="220" width="60" height="60" as="geometry" />
        </mxCell>
        <mxCell id="8N_FcMI9_JePkyyZ4MbF-44" value="A" style="ellipse;whiteSpace=wrap;html=1;aspect=fixed;fillColor=#6d8764;fontColor=#ffffff;strokeColor=#3A5431;" vertex="1" parent="WIyWlLk6GJQsqaUBKTNV-1">
          <mxGeometry x="170" y="180" width="60" height="60" as="geometry" />
        </mxCell>
        <mxCell id="8N_FcMI9_JePkyyZ4MbF-47" style="edgeStyle=orthogonalEdgeStyle;rounded=0;orthogonalLoop=1;jettySize=auto;html=1;entryX=0.5;entryY=0;entryDx=0;entryDy=0;" edge="1" parent="WIyWlLk6GJQsqaUBKTNV-1" source="8N_FcMI9_JePkyyZ4MbF-46" target="WIyWlLk6GJQsqaUBKTNV-11">
          <mxGeometry relative="1" as="geometry" />
        </mxCell>
        <mxCell id="8N_FcMI9_JePkyyZ4MbF-46" value="T" style="ellipse;whiteSpace=wrap;html=1;aspect=fixed;fillColor=#76608a;fontColor=#ffffff;strokeColor=#432D57;" vertex="1" parent="WIyWlLk6GJQsqaUBKTNV-1">
          <mxGeometry x="-380" y="580" width="60" height="60" as="geometry" />
        </mxCell>
        <mxCell id="8N_FcMI9_JePkyyZ4MbF-49" style="edgeStyle=orthogonalEdgeStyle;rounded=0;orthogonalLoop=1;jettySize=auto;html=1;entryX=0.5;entryY=0;entryDx=0;entryDy=0;" edge="1" parent="WIyWlLk6GJQsqaUBKTNV-1" source="8N_FcMI9_JePkyyZ4MbF-48" target="8N_FcMI9_JePkyyZ4MbF-0">
          <mxGeometry relative="1" as="geometry" />
        </mxCell>
        <mxCell id="8N_FcMI9_JePkyyZ4MbF-48" value="RR" style="ellipse;whiteSpace=wrap;html=1;aspect=fixed;fillColor=#fa6800;fontColor=#000000;strokeColor=#C73500;" vertex="1" parent="WIyWlLk6GJQsqaUBKTNV-1">
          <mxGeometry y="580" width="60" height="60" as="geometry" />
        </mxCell>
        <mxCell id="8N_FcMI9_JePkyyZ4MbF-53" style="edgeStyle=orthogonalEdgeStyle;rounded=0;orthogonalLoop=1;jettySize=auto;html=1;exitX=0.5;exitY=1;exitDx=0;exitDy=0;" edge="1" parent="WIyWlLk6GJQsqaUBKTNV-1" source="8N_FcMI9_JePkyyZ4MbF-50" target="8N_FcMI9_JePkyyZ4MbF-52">
          <mxGeometry relative="1" as="geometry" />
        </mxCell>
        <mxCell id="8N_FcMI9_JePkyyZ4MbF-50" value="rootInfo" style="shape=parallelogram;perimeter=parallelogramPerimeter;whiteSpace=wrap;html=1;fixedSize=1;" vertex="1" parent="WIyWlLk6GJQsqaUBKTNV-1">
          <mxGeometry x="207" y="1010" width="140" height="60" as="geometry" />
        </mxCell>
        <mxCell id="8N_FcMI9_JePkyyZ4MbF-52" value="RR" style="ellipse;whiteSpace=wrap;html=1;aspect=fixed;fillColor=#fa6800;fontColor=#000000;strokeColor=#C73500;" vertex="1" parent="WIyWlLk6GJQsqaUBKTNV-1">
          <mxGeometry x="247" y="1100" width="60" height="60" as="geometry" />
        </mxCell>
        <mxCell id="8N_FcMI9_JePkyyZ4MbF-56" style="edgeStyle=orthogonalEdgeStyle;rounded=0;orthogonalLoop=1;jettySize=auto;html=1;entryX=0.5;entryY=0;entryDx=0;entryDy=0;" edge="1" parent="WIyWlLk6GJQsqaUBKTNV-1" source="8N_FcMI9_JePkyyZ4MbF-55" target="8N_FcMI9_JePkyyZ4MbF-44">
          <mxGeometry relative="1" as="geometry" />
        </mxCell>
        <mxCell id="8N_FcMI9_JePkyyZ4MbF-55" value="D" style="ellipse;whiteSpace=wrap;html=1;aspect=fixed;fillColor=#6d8764;fontColor=#ffffff;strokeColor=#3A5431;" vertex="1" parent="WIyWlLk6GJQsqaUBKTNV-1">
          <mxGeometry x="170" y="80" width="60" height="60" as="geometry" />
        </mxCell>
        <mxCell id="8N_FcMI9_JePkyyZ4MbF-78" style="edgeStyle=orthogonalEdgeStyle;rounded=0;orthogonalLoop=1;jettySize=auto;html=1;entryX=0.5;entryY=0;entryDx=0;entryDy=0;" edge="1" parent="WIyWlLk6GJQsqaUBKTNV-1" source="8N_FcMI9_JePkyyZ4MbF-57" target="8N_FcMI9_JePkyyZ4MbF-0">
          <mxGeometry relative="1" as="geometry" />
        </mxCell>
        <mxCell id="8N_FcMI9_JePkyyZ4MbF-57" value="B" style="ellipse;whiteSpace=wrap;html=1;aspect=fixed;fillColor=#6d8764;fontColor=#ffffff;strokeColor=#3A5431;" vertex="1" parent="WIyWlLk6GJQsqaUBKTNV-1">
          <mxGeometry x="117" y="500" width="60" height="60" as="geometry" />
        </mxCell>
        <mxCell id="8N_FcMI9_JePkyyZ4MbF-59" value="S" style="ellipse;whiteSpace=wrap;html=1;aspect=fixed;fillColor=#76608a;fontColor=#ffffff;strokeColor=#432D57;" vertex="1" parent="WIyWlLk6GJQsqaUBKTNV-1">
          <mxGeometry x="-250" y="580" width="60" height="60" as="geometry" />
        </mxCell>
        <mxCell id="8N_FcMI9_JePkyyZ4MbF-63" style="edgeStyle=orthogonalEdgeStyle;rounded=0;orthogonalLoop=1;jettySize=auto;html=1;entryX=0.5;entryY=0;entryDx=0;entryDy=0;" edge="1" parent="WIyWlLk6GJQsqaUBKTNV-1" source="8N_FcMI9_JePkyyZ4MbF-61" target="8N_FcMI9_JePkyyZ4MbF-10">
          <mxGeometry relative="1" as="geometry" />
        </mxCell>
        <mxCell id="8N_FcMI9_JePkyyZ4MbF-61" value="IsSuccess" style="rhombus;whiteSpace=wrap;html=1;" vertex="1" parent="WIyWlLk6GJQsqaUBKTNV-1">
          <mxGeometry x="217" y="830" width="120" height="60" as="geometry" />
        </mxCell>
        <mxCell id="8N_FcMI9_JePkyyZ4MbF-64" value="E" style="ellipse;whiteSpace=wrap;html=1;aspect=fixed;fillColor=#e51400;fontColor=#ffffff;strokeColor=#B20000;" vertex="1" parent="WIyWlLk6GJQsqaUBKTNV-1">
          <mxGeometry x="390" y="830" width="60" height="60" as="geometry" />
        </mxCell>
        <mxCell id="8N_FcMI9_JePkyyZ4MbF-68" style="edgeStyle=orthogonalEdgeStyle;rounded=0;orthogonalLoop=1;jettySize=auto;html=1;entryX=0;entryY=0.5;entryDx=0;entryDy=0;" edge="1" parent="WIyWlLk6GJQsqaUBKTNV-1" source="8N_FcMI9_JePkyyZ4MbF-66" target="8N_FcMI9_JePkyyZ4MbF-67">
          <mxGeometry relative="1" as="geometry" />
        </mxCell>
        <mxCell id="8N_FcMI9_JePkyyZ4MbF-74" style="edgeStyle=orthogonalEdgeStyle;rounded=0;orthogonalLoop=1;jettySize=auto;html=1;exitX=0.5;exitY=1;exitDx=0;exitDy=0;entryX=0.5;entryY=0;entryDx=0;entryDy=0;" edge="1" parent="WIyWlLk6GJQsqaUBKTNV-1" source="8N_FcMI9_JePkyyZ4MbF-66" target="8N_FcMI9_JePkyyZ4MbF-69">
          <mxGeometry relative="1" as="geometry" />
        </mxCell>
        <mxCell id="8N_FcMI9_JePkyyZ4MbF-66" value="true" style="rhombus;whiteSpace=wrap;html=1;" vertex="1" parent="WIyWlLk6GJQsqaUBKTNV-1">
          <mxGeometry x="910" y="540" width="120" height="60" as="geometry" />
        </mxCell>
        <mxCell id="8N_FcMI9_JePkyyZ4MbF-67" value="T" style="ellipse;whiteSpace=wrap;html=1;aspect=fixed;fillColor=#76608a;fontColor=#ffffff;strokeColor=#432D57;" vertex="1" parent="WIyWlLk6GJQsqaUBKTNV-1">
          <mxGeometry x="1090" y="540" width="60" height="60" as="geometry" />
        </mxCell>
        <mxCell id="8N_FcMI9_JePkyyZ4MbF-73" style="edgeStyle=orthogonalEdgeStyle;rounded=0;orthogonalLoop=1;jettySize=auto;html=1;exitX=0.5;exitY=1;exitDx=0;exitDy=0;entryX=0.5;entryY=0;entryDx=0;entryDy=0;" edge="1" parent="WIyWlLk6GJQsqaUBKTNV-1" source="8N_FcMI9_JePkyyZ4MbF-69" target="8N_FcMI9_JePkyyZ4MbF-71">
          <mxGeometry relative="1" as="geometry" />
        </mxCell>
        <mxCell id="8N_FcMI9_JePkyyZ4MbF-69" value="HandleApi()" style="rounded=0;whiteSpace=wrap;html=1;" vertex="1" parent="WIyWlLk6GJQsqaUBKTNV-1">
          <mxGeometry x="900" y="640" width="140" height="60" as="geometry" />
        </mxCell>
        <mxCell id="8N_FcMI9_JePkyyZ4MbF-70" style="edgeStyle=orthogonalEdgeStyle;rounded=0;orthogonalLoop=1;jettySize=auto;html=1;entryX=0;entryY=0.5;entryDx=0;entryDy=0;exitX=1;exitY=0.5;exitDx=0;exitDy=0;" edge="1" parent="WIyWlLk6GJQsqaUBKTNV-1" source="8N_FcMI9_JePkyyZ4MbF-71" target="8N_FcMI9_JePkyyZ4MbF-72">
          <mxGeometry relative="1" as="geometry" />
        </mxCell>
        <mxCell id="8N_FcMI9_JePkyyZ4MbF-75" style="edgeStyle=orthogonalEdgeStyle;rounded=0;orthogonalLoop=1;jettySize=auto;html=1;exitX=0;exitY=0.5;exitDx=0;exitDy=0;entryX=0;entryY=0.5;entryDx=0;entryDy=0;" edge="1" parent="WIyWlLk6GJQsqaUBKTNV-1" source="8N_FcMI9_JePkyyZ4MbF-71" target="8N_FcMI9_JePkyyZ4MbF-66">
          <mxGeometry relative="1" as="geometry">
            <Array as="points">
              <mxPoint x="860" y="770" />
              <mxPoint x="860" y="570" />
            </Array>
          </mxGeometry>
        </mxCell>
        <mxCell id="8N_FcMI9_JePkyyZ4MbF-71" value="IsSuccess" style="rhombus;whiteSpace=wrap;html=1;" vertex="1" parent="WIyWlLk6GJQsqaUBKTNV-1">
          <mxGeometry x="910" y="740" width="120" height="60" as="geometry" />
        </mxCell>
        <mxCell id="8N_FcMI9_JePkyyZ4MbF-72" value="E" style="ellipse;whiteSpace=wrap;html=1;aspect=fixed;fillColor=#e51400;fontColor=#ffffff;strokeColor=#B20000;" vertex="1" parent="WIyWlLk6GJQsqaUBKTNV-1">
          <mxGeometry x="1090" y="740" width="60" height="60" as="geometry" />
        </mxCell>
        <mxCell id="8N_FcMI9_JePkyyZ4MbF-77" style="edgeStyle=orthogonalEdgeStyle;rounded=0;orthogonalLoop=1;jettySize=auto;html=1;entryX=0.5;entryY=0;entryDx=0;entryDy=0;" edge="1" parent="WIyWlLk6GJQsqaUBKTNV-1" source="8N_FcMI9_JePkyyZ4MbF-76" target="8N_FcMI9_JePkyyZ4MbF-8">
          <mxGeometry relative="1" as="geometry" />
        </mxCell>
        <mxCell id="8N_FcMI9_JePkyyZ4MbF-76" value="S" style="ellipse;whiteSpace=wrap;html=1;aspect=fixed;fillColor=#76608a;fontColor=#ffffff;strokeColor=#432D57;" vertex="1" parent="WIyWlLk6GJQsqaUBKTNV-1">
          <mxGeometry x="40" y="40" width="60" height="60" as="geometry" />
        </mxCell>
        <mxCell id="veDKGBILxuSOt_c6IYAu-3" style="edgeStyle=orthogonalEdgeStyle;rounded=0;orthogonalLoop=1;jettySize=auto;html=1;exitX=0.5;exitY=1;exitDx=0;exitDy=0;entryX=0.5;entryY=0;entryDx=0;entryDy=0;" edge="1" parent="WIyWlLk6GJQsqaUBKTNV-1" source="veDKGBILxuSOt_c6IYAu-0" target="veDKGBILxuSOt_c6IYAu-1">
          <mxGeometry relative="1" as="geometry" />
        </mxCell>
        <mxCell id="veDKGBILxuSOt_c6IYAu-0" value="mode" style="rhombus;whiteSpace=wrap;html=1;" vertex="1" parent="WIyWlLk6GJQsqaUBKTNV-1">
          <mxGeometry x="650" y="1050" width="140" height="80" as="geometry" />
        </mxCell>
        <mxCell id="veDKGBILxuSOt_c6IYAu-4" style="edgeStyle=orthogonalEdgeStyle;rounded=0;orthogonalLoop=1;jettySize=auto;html=1;exitX=0.5;exitY=1;exitDx=0;exitDy=0;entryX=0.5;entryY=0;entryDx=0;entryDy=0;" edge="1" parent="WIyWlLk6GJQsqaUBKTNV-1" source="veDKGBILxuSOt_c6IYAu-1" target="veDKGBILxuSOt_c6IYAu-2">
          <mxGeometry relative="1" as="geometry" />
        </mxCell>
        <mxCell id="veDKGBILxuSOt_c6IYAu-12" style="edgeStyle=orthogonalEdgeStyle;rounded=0;orthogonalLoop=1;jettySize=auto;html=1;exitX=1;exitY=0.5;exitDx=0;exitDy=0;entryX=0;entryY=0.5;entryDx=0;entryDy=0;" edge="1" parent="WIyWlLk6GJQsqaUBKTNV-1" source="veDKGBILxuSOt_c6IYAu-1" target="veDKGBILxuSOt_c6IYAu-10">
          <mxGeometry relative="1" as="geometry" />
        </mxCell>
        <mxCell id="veDKGBILxuSOt_c6IYAu-1" value="cluster" style="rhombus;whiteSpace=wrap;html=1;" vertex="1" parent="WIyWlLk6GJQsqaUBKTNV-1">
          <mxGeometry x="650" y="1160" width="140" height="80" as="geometry" />
        </mxCell>
        <mxCell id="veDKGBILxuSOt_c6IYAu-13" style="edgeStyle=orthogonalEdgeStyle;rounded=0;orthogonalLoop=1;jettySize=auto;html=1;exitX=1;exitY=0.5;exitDx=0;exitDy=0;entryX=0;entryY=0.5;entryDx=0;entryDy=0;" edge="1" parent="WIyWlLk6GJQsqaUBKTNV-1" source="veDKGBILxuSOt_c6IYAu-2" target="veDKGBILxuSOt_c6IYAu-11">
          <mxGeometry relative="1" as="geometry" />
        </mxCell>
        <mxCell id="veDKGBILxuSOt_c6IYAu-37" style="edgeStyle=orthogonalEdgeStyle;rounded=0;orthogonalLoop=1;jettySize=auto;html=1;entryX=0.5;entryY=0;entryDx=0;entryDy=0;" edge="1" parent="WIyWlLk6GJQsqaUBKTNV-1" source="veDKGBILxuSOt_c6IYAu-2" target="veDKGBILxuSOt_c6IYAu-36">
          <mxGeometry relative="1" as="geometry" />
        </mxCell>
        <mxCell id="veDKGBILxuSOt_c6IYAu-2" value="volume" style="rhombus;whiteSpace=wrap;html=1;" vertex="1" parent="WIyWlLk6GJQsqaUBKTNV-1">
          <mxGeometry x="650" y="1270" width="140" height="80" as="geometry" />
        </mxCell>
        <mxCell id="veDKGBILxuSOt_c6IYAu-5" value="E" style="ellipse;whiteSpace=wrap;html=1;aspect=fixed;fillColor=#e51400;fontColor=#ffffff;strokeColor=#B20000;" vertex="1" parent="WIyWlLk6GJQsqaUBKTNV-1">
          <mxGeometry x="690" y="1490" width="60" height="60" as="geometry" />
        </mxCell>
        <mxCell id="veDKGBILxuSOt_c6IYAu-14" style="edgeStyle=orthogonalEdgeStyle;rounded=0;orthogonalLoop=1;jettySize=auto;html=1;entryX=0.5;entryY=0;entryDx=0;entryDy=0;" edge="1" parent="WIyWlLk6GJQsqaUBKTNV-1" source="veDKGBILxuSOt_c6IYAu-7" target="veDKGBILxuSOt_c6IYAu-0">
          <mxGeometry relative="1" as="geometry" />
        </mxCell>
        <mxCell id="veDKGBILxuSOt_c6IYAu-7" value="MM" style="ellipse;whiteSpace=wrap;html=1;aspect=fixed;fillColor=#fa6800;fontColor=#000000;strokeColor=#C73500;" vertex="1" parent="WIyWlLk6GJQsqaUBKTNV-1">
          <mxGeometry x="690" y="960" width="60" height="60" as="geometry" />
        </mxCell>
        <mxCell id="veDKGBILxuSOt_c6IYAu-8" value="MM" style="ellipse;whiteSpace=wrap;html=1;aspect=fixed;fillColor=#fa6800;fontColor=#000000;strokeColor=#C73500;" vertex="1" parent="WIyWlLk6GJQsqaUBKTNV-1">
          <mxGeometry y="740" width="60" height="60" as="geometry" />
        </mxCell>
        <mxCell id="veDKGBILxuSOt_c6IYAu-10" value="VV" style="ellipse;whiteSpace=wrap;html=1;aspect=fixed;fillColor=#fa6800;fontColor=#000000;strokeColor=#C73500;" vertex="1" parent="WIyWlLk6GJQsqaUBKTNV-1">
          <mxGeometry x="840" y="1170" width="60" height="60" as="geometry" />
        </mxCell>
        <mxCell id="veDKGBILxuSOt_c6IYAu-11" value="TT" style="ellipse;whiteSpace=wrap;html=1;aspect=fixed;fillColor=#fa6800;fontColor=#000000;strokeColor=#C73500;" vertex="1" parent="WIyWlLk6GJQsqaUBKTNV-1">
          <mxGeometry x="840" y="1280" width="60" height="60" as="geometry" />
        </mxCell>
        <mxCell id="veDKGBILxuSOt_c6IYAu-16" style="edgeStyle=orthogonalEdgeStyle;rounded=0;orthogonalLoop=1;jettySize=auto;html=1;entryX=0.5;entryY=0;entryDx=0;entryDy=0;" edge="1" parent="WIyWlLk6GJQsqaUBKTNV-1" source="veDKGBILxuSOt_c6IYAu-15" target="8N_FcMI9_JePkyyZ4MbF-2">
          <mxGeometry relative="1" as="geometry" />
        </mxCell>
        <mxCell id="veDKGBILxuSOt_c6IYAu-15" value="VV" style="ellipse;whiteSpace=wrap;html=1;aspect=fixed;fillColor=#fa6800;fontColor=#000000;strokeColor=#C73500;" vertex="1" parent="WIyWlLk6GJQsqaUBKTNV-1">
          <mxGeometry x="1300" y="1000" width="60" height="60" as="geometry" />
        </mxCell>
        <mxCell id="veDKGBILxuSOt_c6IYAu-22" style="edgeStyle=orthogonalEdgeStyle;rounded=0;orthogonalLoop=1;jettySize=auto;html=1;entryX=0.5;entryY=0;entryDx=0;entryDy=0;" edge="1" parent="WIyWlLk6GJQsqaUBKTNV-1" source="veDKGBILxuSOt_c6IYAu-19" target="veDKGBILxuSOt_c6IYAu-21">
          <mxGeometry relative="1" as="geometry" />
        </mxCell>
        <mxCell id="veDKGBILxuSOt_c6IYAu-19" value="FF" style="ellipse;whiteSpace=wrap;html=1;aspect=fixed;fillColor=#fa6800;fontColor=#000000;strokeColor=#C73500;" vertex="1" parent="WIyWlLk6GJQsqaUBKTNV-1">
          <mxGeometry x="1520" y="1000" width="60" height="60" as="geometry" />
        </mxCell>
        <mxCell id="veDKGBILxuSOt_c6IYAu-20" value="LV" style="ellipse;whiteSpace=wrap;html=1;aspect=fixed;fillColor=#fa6800;fontColor=#000000;strokeColor=#C73500;" vertex="1" parent="WIyWlLk6GJQsqaUBKTNV-1">
          <mxGeometry x="1654" y="1095" width="60" height="60" as="geometry" />
        </mxCell>
        <mxCell id="veDKGBILxuSOt_c6IYAu-29" style="edgeStyle=orthogonalEdgeStyle;rounded=0;orthogonalLoop=1;jettySize=auto;html=1;exitX=0.5;exitY=1;exitDx=0;exitDy=0;entryX=0.5;entryY=0;entryDx=0;entryDy=0;" edge="1" parent="WIyWlLk6GJQsqaUBKTNV-1" source="veDKGBILxuSOt_c6IYAu-21" target="veDKGBILxuSOt_c6IYAu-27">
          <mxGeometry relative="1" as="geometry" />
        </mxCell>
        <mxCell id="veDKGBILxuSOt_c6IYAu-33" style="edgeStyle=orthogonalEdgeStyle;rounded=0;orthogonalLoop=1;jettySize=auto;html=1;exitX=1;exitY=0.5;exitDx=0;exitDy=0;entryX=0;entryY=0.5;entryDx=0;entryDy=0;" edge="1" parent="WIyWlLk6GJQsqaUBKTNV-1" source="veDKGBILxuSOt_c6IYAu-21" target="veDKGBILxuSOt_c6IYAu-20">
          <mxGeometry relative="1" as="geometry" />
        </mxCell>
        <mxCell id="veDKGBILxuSOt_c6IYAu-21" value="MoveNext()" style="rhombus;whiteSpace=wrap;html=1;" vertex="1" parent="WIyWlLk6GJQsqaUBKTNV-1">
          <mxGeometry x="1480" y="1090" width="140" height="70" as="geometry" />
        </mxCell>
        <mxCell id="veDKGBILxuSOt_c6IYAu-23" value="FF" style="ellipse;whiteSpace=wrap;html=1;aspect=fixed;fillColor=#fa6800;fontColor=#000000;strokeColor=#C73500;" vertex="1" parent="WIyWlLk6GJQsqaUBKTNV-1">
          <mxGeometry x="1300" y="1380" width="60" height="60" as="geometry" />
        </mxCell>
        <mxCell id="veDKGBILxuSOt_c6IYAu-26" style="edgeStyle=orthogonalEdgeStyle;rounded=0;orthogonalLoop=1;jettySize=auto;html=1;entryX=0.5;entryY=0;entryDx=0;entryDy=0;" edge="1" parent="WIyWlLk6GJQsqaUBKTNV-1" source="veDKGBILxuSOt_c6IYAu-24" target="veDKGBILxuSOt_c6IYAu-23">
          <mxGeometry relative="1" as="geometry" />
        </mxCell>
        <mxCell id="veDKGBILxuSOt_c6IYAu-24" value="VolumeList" style="shape=parallelogram;perimeter=parallelogramPerimeter;whiteSpace=wrap;html=1;fixedSize=1;" vertex="1" parent="WIyWlLk6GJQsqaUBKTNV-1">
          <mxGeometry x="1260" y="1280" width="140" height="60" as="geometry" />
        </mxCell>
        <mxCell id="veDKGBILxuSOt_c6IYAu-30" style="edgeStyle=orthogonalEdgeStyle;rounded=0;orthogonalLoop=1;jettySize=auto;html=1;entryX=0.5;entryY=0;entryDx=0;entryDy=0;" edge="1" parent="WIyWlLk6GJQsqaUBKTNV-1" source="veDKGBILxuSOt_c6IYAu-27" target="veDKGBILxuSOt_c6IYAu-28">
          <mxGeometry relative="1" as="geometry" />
        </mxCell>
        <mxCell id="veDKGBILxuSOt_c6IYAu-27" value="new Thread()" style="rounded=0;whiteSpace=wrap;html=1;" vertex="1" parent="WIyWlLk6GJQsqaUBKTNV-1">
          <mxGeometry x="1467.5" y="1190" width="162.5" height="60" as="geometry" />
        </mxCell>
        <mxCell id="veDKGBILxuSOt_c6IYAu-28" value="ThreadPool.Start()" style="rounded=0;whiteSpace=wrap;html=1;" vertex="1" parent="WIyWlLk6GJQsqaUBKTNV-1">
          <mxGeometry x="1467.5" y="1460" width="162.5" height="60" as="geometry" />
        </mxCell>
        <mxCell id="veDKGBILxuSOt_c6IYAu-34" value="LV" style="ellipse;whiteSpace=wrap;html=1;aspect=fixed;fillColor=#fa6800;fontColor=#000000;strokeColor=#C73500;" vertex="1" parent="WIyWlLk6GJQsqaUBKTNV-1">
          <mxGeometry x="1950" y="1000" width="60" height="60" as="geometry" />
        </mxCell>
        <mxCell id="veDKGBILxuSOt_c6IYAu-35" value="new ThreadPool()" style="rounded=0;whiteSpace=wrap;html=1;" vertex="1" parent="WIyWlLk6GJQsqaUBKTNV-1">
          <mxGeometry x="1640" y="1350" width="162.5" height="60" as="geometry" />
        </mxCell>
        <mxCell id="veDKGBILxuSOt_c6IYAu-38" style="edgeStyle=orthogonalEdgeStyle;rounded=0;orthogonalLoop=1;jettySize=auto;html=1;entryX=0.5;entryY=0;entryDx=0;entryDy=0;" edge="1" parent="WIyWlLk6GJQsqaUBKTNV-1" source="veDKGBILxuSOt_c6IYAu-36" target="veDKGBILxuSOt_c6IYAu-5">
          <mxGeometry relative="1" as="geometry" />
        </mxCell>
        <mxCell id="veDKGBILxuSOt_c6IYAu-40" style="edgeStyle=orthogonalEdgeStyle;rounded=0;orthogonalLoop=1;jettySize=auto;html=1;entryX=0;entryY=0.5;entryDx=0;entryDy=0;" edge="1" parent="WIyWlLk6GJQsqaUBKTNV-1" source="veDKGBILxuSOt_c6IYAu-36" target="veDKGBILxuSOt_c6IYAu-39">
          <mxGeometry relative="1" as="geometry" />
        </mxCell>
        <mxCell id="veDKGBILxuSOt_c6IYAu-36" value="hybrid" style="rhombus;whiteSpace=wrap;html=1;" vertex="1" parent="WIyWlLk6GJQsqaUBKTNV-1">
          <mxGeometry x="650" y="1380" width="140" height="80" as="geometry" />
        </mxCell>
        <mxCell id="veDKGBILxuSOt_c6IYAu-39" value="EE" style="ellipse;whiteSpace=wrap;html=1;aspect=fixed;fillColor=#fa6800;fontColor=#000000;strokeColor=#C73500;" vertex="1" parent="WIyWlLk6GJQsqaUBKTNV-1">
          <mxGeometry x="840" y="1390" width="60" height="60" as="geometry" />
        </mxCell>
      </root>
    </mxGraphModel>
  </diagram>
  <diagram id="P4rYgwucmzNwFidcQotV" name="Страница — 2">
    <mxGraphModel dx="1247" dy="727" grid="1" gridSize="10" guides="1" tooltips="1" connect="1" arrows="1" fold="1" page="1" pageScale="1" pageWidth="827" pageHeight="1169" math="0" shadow="0">
      <root>
        <mxCell id="0" />
        <mxCell id="1" parent="0" />
        <mxCell id="SLk7LaPdF7T7Vt0anTHe-2" value="Cluster (master)" style="swimlane;fillColor=#fa6800;fontColor=#000000;strokeColor=#C73500;" vertex="1" parent="1">
          <mxGeometry x="10" y="360" width="980" height="190" as="geometry" />
        </mxCell>
        <mxCell id="SLk7LaPdF7T7Vt0anTHe-3" value="Server-1 (slave)" style="swimlane;fillColor=#76608a;fontColor=#ffffff;strokeColor=#432D57;" vertex="1" parent="SLk7LaPdF7T7Vt0anTHe-2">
          <mxGeometry x="10" y="30" width="200" height="150" as="geometry" />
        </mxCell>
        <mxCell id="SLk7LaPdF7T7Vt0anTHe-6" value="Volume-0" style="swimlane;fillColor=#6d8764;fontColor=#ffffff;strokeColor=#3A5431;" vertex="1" parent="SLk7LaPdF7T7Vt0anTHe-3">
          <mxGeometry y="30" width="100" height="120" as="geometry" />
        </mxCell>
        <mxCell id="SLk7LaPdF7T7Vt0anTHe-13" value="/mnt/d1/data/" style="text;html=1;align=center;verticalAlign=middle;resizable=0;points=[];autosize=1;strokeColor=none;fillColor=none;" vertex="1" parent="SLk7LaPdF7T7Vt0anTHe-6">
          <mxGeometry x="5" y="58" width="90" height="30" as="geometry" />
        </mxCell>
        <mxCell id="SLk7LaPdF7T7Vt0anTHe-7" value="Volume-1" style="swimlane;fillColor=#6d8764;fontColor=#ffffff;strokeColor=#3A5431;" vertex="1" parent="SLk7LaPdF7T7Vt0anTHe-3">
          <mxGeometry x="100" y="30" width="100" height="120" as="geometry" />
        </mxCell>
        <mxCell id="SLk7LaPdF7T7Vt0anTHe-14" value="/mnt/d0/data" style="text;html=1;align=center;verticalAlign=middle;resizable=0;points=[];autosize=1;strokeColor=none;fillColor=none;" vertex="1" parent="SLk7LaPdF7T7Vt0anTHe-7">
          <mxGeometry x="5" y="58" width="90" height="30" as="geometry" />
        </mxCell>
        <mxCell id="SLk7LaPdF7T7Vt0anTHe-4" value="Server-2 (slave)" style="swimlane;fillColor=#76608a;fontColor=#ffffff;strokeColor=#432D57;" vertex="1" parent="SLk7LaPdF7T7Vt0anTHe-2">
          <mxGeometry x="220" y="30" width="200" height="150" as="geometry" />
        </mxCell>
        <mxCell id="SLk7LaPdF7T7Vt0anTHe-8" value="Volume-0" style="swimlane;fillColor=#6d8764;fontColor=#ffffff;strokeColor=#3A5431;" vertex="1" parent="SLk7LaPdF7T7Vt0anTHe-4">
          <mxGeometry y="30" width="200" height="120" as="geometry" />
        </mxCell>
        <mxCell id="SLk7LaPdF7T7Vt0anTHe-5" value="Server-3 (slave)" style="swimlane;fillColor=#76608a;fontColor=#ffffff;strokeColor=#432D57;" vertex="1" parent="SLk7LaPdF7T7Vt0anTHe-2">
          <mxGeometry x="430" y="30" width="280" height="150" as="geometry" />
        </mxCell>
        <mxCell id="SLk7LaPdF7T7Vt0anTHe-9" value="Volume-0" style="swimlane;fillColor=#6d8764;fontColor=#ffffff;strokeColor=#3A5431;" vertex="1" parent="SLk7LaPdF7T7Vt0anTHe-5">
          <mxGeometry y="30" width="70" height="120" as="geometry" />
        </mxCell>
        <mxCell id="SLk7LaPdF7T7Vt0anTHe-10" value="Volume-1" style="swimlane;fillColor=#6d8764;fontColor=#ffffff;strokeColor=#3A5431;" vertex="1" parent="SLk7LaPdF7T7Vt0anTHe-5">
          <mxGeometry x="70" y="30" width="70" height="120" as="geometry" />
        </mxCell>
        <mxCell id="SLk7LaPdF7T7Vt0anTHe-11" value="Volume-2" style="swimlane;fillColor=#6d8764;fontColor=#ffffff;strokeColor=#3A5431;" vertex="1" parent="SLk7LaPdF7T7Vt0anTHe-5">
          <mxGeometry x="140" y="30" width="70" height="120" as="geometry" />
        </mxCell>
        <mxCell id="SLk7LaPdF7T7Vt0anTHe-12" value="Volume-3" style="swimlane;fillColor=#6d8764;fontColor=#ffffff;strokeColor=#3A5431;" vertex="1" parent="SLk7LaPdF7T7Vt0anTHe-5">
          <mxGeometry x="210" y="30" width="70" height="120" as="geometry" />
        </mxCell>
        <mxCell id="SLk7LaPdF7T7Vt0anTHe-15" value="DB (Postgres)" style="swimlane;fillColor=#e51400;fontColor=#ffffff;strokeColor=#B20000;" vertex="1" parent="SLk7LaPdF7T7Vt0anTHe-2">
          <mxGeometry x="720" y="30" width="120" height="150" as="geometry" />
        </mxCell>
        <mxCell id="SLk7LaPdF7T7Vt0anTHe-20" value="DB (Redis)" style="swimlane;fillColor=#e51400;fontColor=#ffffff;strokeColor=#B20000;" vertex="1" parent="SLk7LaPdF7T7Vt0anTHe-2">
          <mxGeometry x="850" y="30" width="120" height="150" as="geometry" />
        </mxCell>
      </root>
    </mxGraphModel>
  </diagram>
</mxfile>
